# AST/ASF file generated using VICON BodyLanguage
# -----------------------------------------------
:version 1.10
:name VICON
:units
  mass 1.0
  length 0.45
  angle deg
:documentation
   .ast/.asf automatically generated from VICON data using
   VICON BodyBuilder and BodyLanguage model FoxedUp or BRILLIANT.MOD
:root
   order TX TY TZ RX RY RZ
   axis XYZ
   position 0 0 0  
   orientation 0 0 0 
:bonedata
  begin
     id 1 
     name lhipjoint
     direction 0.57768 -0.667037 0.470475 
     length 2.36008 
     axis 0 0 0  XYZ
  end
  begin
     id 2 
     name lfemur
     direction 0.34202 -0.939693 0  
     length 6.97235  
     axis 0 0 20  XYZ
    dof rx ry rz
    limits (-160.0 20.0)
           (-70.0 70.0)
           (-60.0 70.0)
  end
  begin
     id 3 
     name ltibia
     direction 0.34202 -0.939693 0   
     length 6.93428   
     axis 0 0 20   XYZ
    dof rx
    limits (-10.0 170.0)
  end
  begin
     id 4 
     name lfoot
     direction 0.133018 -0.365463 0.921272   
     length 2.18603   
     axis -90 7.62852e-016 20   XYZ
    dof rx rz
    limits (-45.0 90.0)
           (-70.0 20.0)
  end
  begin
     id 5 
     name ltoes
     direction 1.53519e-011 -4.22055e-011 1   
     length 1.07924   
     axis -90 7.62852e-016 20   XYZ
    dof rx
    limits (-90.0 20.0)
  end
  begin
     id 6 
     name rhipjoint
     direction -0.577712 -0.667019 0.470462   
     length 2.36015  
     axis 0 0 0  XYZ 
  end
  begin
     id 7 
     name rfemur
     direction -0.34202 -0.939693 0   
     length 6.71195   
     axis 0 0 -20   XYZ
    dof rx ry rz
    limits (-160.0 20.0)
           (-70.0 70.0)
           (-70.0 60.0)
  end
  begin
     id 8 
     name rtibia
     direction -0.34202 -0.939693 0   
     length 7.04592   
     axis 0 0 -20   XYZ
    dof rx
    limits (-10.0 170.0)
 end
 begin
     id 9 
     name rfoot
     direction -0.113796 -0.312651 0.943027   
     length 2.03846  
     axis -90 -7.62852e-016 -20   XYZ
    dof rx rz
    limits (-45.0 90.0)
           (-20.0 70.0)
  end
  begin
     id 10 
     name rtoes
     direction -1.53586e-011 -4.218e-011 1   
     length 1.01562   
     axis -90 -7.62852e-016 -20   XYZ
    dof rx
    limits (-90.0 20.0)
  end
  begin
     id 11 
     name lowerback
     direction -0.0417299 0.991937 -0.119667   
     length 2.05257   
     axis 0 0 0   XYZ
    dof rx ry rz
    limits (-20.0 45.0)
           (-30.0 30.0)
           (-30.0 30.0)
  end
  begin
     id 12 
     name upperback
     direction -0.00017666 0.999999 0.00105178   
     length 2.05693   
     axis 0 0 0   XYZ
    dof rx ry rz
    limits (-20.0 45.0)
           (-30.0 30.0)
           (-30.0 30.0)
  end
  begin
     id 13 
     name thorax
     direction 0.0185169 0.998203 0.0569866   
     length 2.0932   
     axis 0 0 0   XYZ
    dof rx ry rz
    limits (-20.0 45.0)
           (-30.0 30.0)
           (-30.0 30.0)
  end
  begin
     id 14 
     name lowerneck
     direction -0.0212406 0.982645 0.184277   
     length 1.72509   
     axis 0 0 0   XYZ
    dof rx ry rz
    limits (-20.0 45.0)
           (-30.0 30.0)
           (-30.0 30.0)
  end
  begin
     id 15 
     name upperneck
     direction 0.00528579 0.965323 -0.261004   
     length 1.76294   
     axis 0 0 0   XYZ
    dof rx ry rz
    limits (-20.0 45.0)
           (-30.0 30.0)
           (-30.0 30.0)
  end
  begin
     id 16
     name head
     direction 0.00695421 0.994078 -0.108445  
     length 1.78678  
     axis 0 0 0   XYZ
    dof rx ry rz
    limits (-20.0 45.0)
           (-30.0 30.0)
           (-30.0 30.0)
  end
  begin
     id 17 
     name lclavicle
     direction 0.97277 0.211305 -0.095232  
     length 3.84823  
     axis 0 0 0   XYZ
    dof ry rz
    limits (-20.0 10.0)
           (0.0 20.0)
  end
  begin
     id 18 
     name lhumerus
     direction 1 -4.48957e-011 -1.98313e-027   
     length 4.97185   
     axis 180 -30 -90   XYZ
    dof rx ry rz
    limits (-60.0 90.0)
           (-90.0 90.0)
           (-90.0 90.0)
  end
  begin
     id 19
     name lradius
     direction 1 -4.4898e-011 7.31063e-027   
     length 3.35811   
     axis 180 -30 -90   XYZ
    dof rx
    limits (-10.0 170.0)
  end
  begin
     id 20
     name lwrist
     direction 1 -4.48938e-011 9.95048e-027   
     length 1.67905   
     axis -8.75986e-015 90 90   XYZ
    dof ry
    limits (-180.0 0.0)
 end
  begin
     id 21 
     name lhand
     direction 1 -4.4901e-011 1.9901e-026   
     length 0.622776   
     axis -1.26985e-014 90 90   XYZ
    dof rx rz
    limits (-90.0 90.0)
           (-45.0 45.0)
  end
  begin
     id 22 
     name lfingers
     direction 1 -4.48961e-011 3.98019e-026   
     length 0.502098   
     axis -2.5397e-014 90 90   XYZ
    dof rx
    limits (0.0 90.0)
  end
  begin
     id 23
     name lthumb
     direction 0.707107 -6.34933e-011 0.707107   
     length 0.720915   
     axis -90 45 2.85299e-015   XYZ
    dof rx rz
    limits (-45.0 45.0)
           (-45.0 45.0)
  end
  begin
     id 24 
     name rclavicle
     direction -0.990867 0.133739 -0.0172226   
     length 3.78845  
     axis 0 0 0   XYZ 
    dof ry rz
    limits (-10.0 20.0)
           (-20.0 0.0)
  end
  begin
     id 25 
     name rhumerus
     direction -1 -4.48972e-011 -1.99267e-027  
     length 4.96493   
     axis 180 30 90   XYZ
    dof rx ry rz
    limits (-90.0 60.0)
           (-90.0 90.0)
           (-90.0 90.0)
  end
  begin
     id 26 
     name rradius
     direction -1 -4.48969e-011 8.96093e-027   
     length 3.34929   
     axis 180 30 90   XYZ
    dof rx
    limits (-10.0 170.0)
  end
  begin
     id 27 
     name rwrist
     direction -1 -4.48953e-011 9.95048e-027   
     length 1.67464   
     axis -8.75986e-015 -90 -90   XYZ
    dof ry
    limits (-180.0 0.0)
  end
  begin
     id 28
     name rhand
     direction -1 -4.49001e-011 1.9901e-026   
     length 0.638041   
     axis -1.26985e-014 -90 -90   XYZ
    dof rx rz
    limits (-90.0 90.0)
           (-45.0 45.0)
  end
  begin
     id 29
     name rfingers
     direction -1 -4.48967e-011 3.98019e-026   
     length 0.514405   
     axis -2.5397e-014 -90 -90   XYZ
    dof rx
    limits (0.0 90.0)
  end
  begin
     id 30
     name rthumb
     direction -0.707107 -6.34904e-011 0.707107   
     length 0.738586   
     axis -90 -45 -2.85299e-015   XYZ
    dof rx rz
    limits (-45.0 45.0)
           (-45.0 45.0)
  end
:hierarchy
  begin
    root lhipjoint rhipjoint lowerback
    lhipjoint lfemur
    lfemur ltibia
    ltibia lfoot
    lfoot ltoes
    rhipjoint rfemur
    rfemur rtibia
    rtibia rfoot
    rfoot rtoes
    lowerback upperback
    upperback thorax
    thorax lowerneck lclavicle rclavicle
    lowerneck upperneck
    upperneck head
    lclavicle lhumerus
    lhumerus lradius
    lradius lwrist
    lwrist lhand lthumb
    lhand lfingers
    rclavicle rhumerus
    rhumerus rradius
    rradius rwrist
    rwrist rhand rthumb
    rhand rfingers
  end

#!OML:ASF E:\Mandelcareful walks\Project 1\Capture day 1\Session 1\Subject1.ASF
:FULLY-SPECIFIED
:DEGREES
62
root -29.2327 16.3137 -3.0817 46.1457 86.7705 44.5838
lowerback -3.7335 1.94942 -3.77805
upperback 3.64839 2.85187 0.555238
thorax 5.67588 1.2551 2.9359
lowerneck -3.99622 17.7416 15.5204
upperneck 26.1045 28.7289 -12.8773
head 13.7229 13.6204 -2.63475
rclavicle -7.50412e-015 8.34896e-015
rhumerus -29.1919 -8.53947 -83.455
rradius 25.9029
rwrist -7.90938
rhand -8.97088 -26.6424
rfingers 7.12502
rthumb 16.9745 -55.9206
lclavicle -7.50412e-015 8.34896e-015
lhumerus -25.1345 10.4766 87.4156
lradius 24.9145
lwrist 19.5954
lhand -25.5533 -10.3897
lfingers 7.12502
lthumb 0.977192 19.5878
rfemur -6.42103 3.20814 15.9855
rtibia 27.8759
rfoot -34.2838 -30.3745
rtoes 15.8762
lfemur -6.39783 -5.24166 -20.5937
ltibia 32.248
lfoot -25.9984 16.0784
ltoes -3.12013
63
root -29.2338 16.3124 -3.07838 48.6238 86.9151 46.9899
lowerback -3.81685 1.92466 -3.80477
upperback 3.61748 2.82067 0.588157
thorax 5.69069 1.23741 2.98551
lowerneck -4.09669 17.7351 15.4357
upperneck 26.0867 28.6928 -12.8381
head 13.706 13.5953 -2.61064
rclavicle 2.21645e-014 2.38542e-015
rhumerus -29.23 -8.42853 -83.4208
rradius 25.9308
rwrist -8.10009
rhand -9.02586 -26.9016
rfingers 7.12502
rthumb 16.9215 -56.1844
lclavicle 2.21645e-014 2.38542e-015
lhumerus -25.132 9.78536 87.5782
lradius 24.7892
lwrist 17.9344
lhand -26.3623 -10.2769
lfingers 7.12502
lthumb 0.195789 19.7027
rfemur -6.44983 3.38667 16.0487
rtibia 27.8512
rfoot -34.751 -30.4735
rtoes 16.8197
lfemur -6.52332 -5.2889 -20.5347
ltibia 32.2832
lfoot -26.0934 15.8293
ltoes -3.12963
64
root -29.2336 16.3139 -3.07592 50.8869 87.0449 49.1957
lowerback -3.89761 1.89772 -3.85106
upperback 3.58041 2.78663 0.637992
thorax 5.69619 1.21741 3.06315
lowerneck -4.05039 17.6951 15.4082
upperneck 25.9273 28.6407 -12.9578
head 13.6388 13.5696 -2.66971
rclavicle 2.70844e-014 -5.96354e-015
rhumerus -29.2698 -8.49334 -83.3167
rradius 25.9139
rwrist -8.00326
rhand -9.12056 -27.1156
rfingers 7.12502
rthumb 16.8304 -56.4062
lclavicle 2.70844e-014 -5.96354e-015
lhumerus -25.0322 9.46797 87.6566
lradius 24.3977
lwrist 15.5355
lhand -26.713 -10.3484
lfingers 7.12502
lthumb -0.142931 19.6313
rfemur -6.45228 3.48361 16.1151
rtibia 27.8012
rfoot -34.8803 -30.6877
rtoes 17.053
lfemur -6.64036 -5.31579 -20.4766
ltibia 32.3502
lfoot -26.1106 15.6137
ltoes -3.26903
65
root -29.236 16.3127 -3.07198 53.8655 87.214 52.1783
lowerback -3.8677 1.85048 -3.89048
upperback 3.55847 2.7215 0.686194
thorax 5.6572 1.18371 3.12834
lowerneck -4.00588 17.684 15.3992
upperneck 25.7667 28.6265 -13.0711
head 13.5801 13.5613 -2.71885
rclavicle -1.77415e-014 8.74653e-015
rhumerus -29.3827 -8.32624 -83.297
rradius 26.0452
rwrist -8.05534
rhand -9.2581 -27.5251
rfingers 7.12502
rthumb 16.698 -56.8269
lclavicle -1.77415e-014 8.74653e-015
lhumerus -24.9031 9.37873 87.6519
lradius 23.958
lwrist 13.0626
lhand -26.3841 -10.8543
lfingers 7.12502
lthumb 0.174759 19.1253
rfemur -6.36875 3.66035 16.225
rtibia 27.7422
rfoot -35.0873 -30.9905
rtoes 17.0164
lfemur -6.71618 -5.29859 -20.395
ltibia 32.4204
lfoot -25.8856 15.5686
ltoes -3.49783
66
root -29.2385 16.3113 -3.06781 57.3381 87.3787 55.6122
lowerback -3.87371 1.78811 -3.9148
upperback 3.53432 2.63652 0.733128
thorax 5.63897 1.14024 3.18375
lowerneck -4.00778 17.6966 15.3633
upperneck 25.6724 28.6444 -13.1314
head 13.5493 13.5638 -2.73293
rclavicle -2.60905e-014 -1.35174e-014
rhumerus -29.4049 -7.78688 -83.3717
rradius 26.178
rwrist -8.43151
rhand -9.28875 -27.9387
rfingers 7.12502
rthumb 16.6685 -57.243
lclavicle -2.60905e-014 -1.35174e-014
lhumerus -24.746 9.52601 87.5653
lradius 23.4848
lwrist 10.6505
lhand -25.4829 -11.7273
lfingers 7.12502
lthumb 1.04513 18.2499
rfemur -6.34182 3.8096 16.3271
rtibia 27.6941
rfoot -35.5158 -31.1426
rtoes 17.4017
lfemur -6.83768 -5.29718 -20.3073
ltibia 32.4684
lfoot -25.6587 15.5374
ltoes -3.71697
67
root -29.2375 16.3163 -3.0665 60.4818 87.509 58.6088
lowerback -4.02082 1.74365 -3.90018
upperback 3.47228 2.57682 0.781217
thorax 5.66113 1.10973 3.22539
lowerneck -4.01144 17.6896 15.3
upperneck 25.6616 28.6497 -13.1511
head 13.5395 13.5616 -2.73164
rclavicle -5.76476e-015 -6.36111e-015
rhumerus -29.33 -7.65812 -83.2729
rradius 26.1211
rwrist -8.4196
rhand -9.09848 -28.0218
rfingers 7.12502
rthumb 16.8516 -57.3106
lclavicle -5.76476e-015 -6.36111e-015
lhumerus -24.5854 9.81729 87.4801
lradius 22.9152
lwrist 8.11153
lhand -24.4466 -12.4323
lfingers 7.12502
lthumb 2.04603 17.5377
rfemur -6.44026 3.79164 16.389
rtibia 27.646
rfoot -35.744 -31.2191
rtoes 17.7728
lfemur -7.04812 -5.3429 -20.2304
ltibia 32.5029
lfoot -25.5814 15.4037
ltoes -3.67374
68
root -29.2359 16.3213 -3.06788 62.5637 87.6004 60.5738
lowerback -4.14925 1.75109 -3.81706
upperback 3.39925 2.58286 0.789281
thorax 5.65991 1.1162 3.19101
lowerneck -3.99223 17.6398 15.3876
upperneck 25.7212 28.6174 -13.2144
head 13.5835 13.5513 -2.77102
rclavicle -3.12589e-014 -8.74653e-015
rhumerus -29.3267 -7.85185 -83.133
rradius 26.0664
rwrist -8.17866
rhand -9.14775 -28.0936
rfingers 7.12502
rthumb 16.8042 -57.3864
lclavicle -3.12589e-014 -8.74653e-015
lhumerus -24.5325 9.72447 87.5008
lradius 22.4553
lwrist 5.59846
lhand -23.8678 -12.6723
lfingers 7.12502
lthumb 2.60505 17.2915
rfemur -6.51706 3.67855 16.4199
rtibia 27.6022
rfoot -35.6152 -31.2589
rtoes 17.8156
lfemur -7.19699 -5.43838 -20.1801
ltibia 32.5219
lfoot -25.6562 15.2806
ltoes -3.63826
